<?xml version="1.0" encoding="UTF-8" standalone="no"?>
<!-- Created with Inkscape (http://www.inkscape.org/) -->

<svg
   width="55.845818mm"
   height="52.795395mm"
   viewBox="0 0 55.845818 52.795395"
   version="1.1"
   id="svg1"
   inkscape:version="1.3.2 (091e20e, 2023-11-25)"
   sodipodi:docname="stackchan.svg"
   xmlns:inkscape="http://www.inkscape.org/namespaces/inkscape"
   xmlns:sodipodi="http://sodipodi.sourceforge.net/DTD/sodipodi-0.dtd"
   xmlns="http://www.w3.org/2000/svg"
   xmlns:svg="http://www.w3.org/2000/svg">
  <sodipodi:namedview
     id="namedview1"
     pagecolor="#ffffff"
     bordercolor="#000000"
     borderopacity="0.25"
     inkscape:showpageshadow="2"
     inkscape:pageopacity="0.0"
     inkscape:pagecheckerboard="0"
     inkscape:deskcolor="#d1d1d1"
     inkscape:document-units="mm"
     inkscape:zoom="0.78751403"
     inkscape:cx="93.331671"
     inkscape:cy="111.74404"
     inkscape:window-width="1664"
     inkscape:window-height="1027"
     inkscape:window-x="2167"
     inkscape:window-y="25"
     inkscape:window-maximized="0"
     inkscape:current-layer="layer1" />
  <defs
     id="defs1" />
  <g
     inkscape:label="Layer 1"
     inkscape:groupmode="layer"
     id="layer1"
     transform="translate(-80.168746,-119.0625)">
    <g
       id="g2"
       transform="translate(-70.80342,115.87102)">
      <path
         id="path233-4"
         style="display:inline;fill:#ffffff;stroke:#000000;stroke-width:1.31298;stroke-linecap:round;stroke-linejoin:round;stroke-dasharray:none;stroke-opacity:1"
         d="m 160.62073,3.8484005 c -1.81838,-0.033304 -2.77745,2.0980983 -2.77745,2.0980983 0,0 -5.51721,25.4029362 -6.12347,28.3130452 -0.60628,2.910109 1.81889,3.576894 1.81889,3.576894 0,0 9.20969,1.968698 15.78432,3.3574 -0.002,0.0026 -0.004,0.0048 -0.006,0.0073 v 1.7e-4 c 0,0 -11.82233,3.971065 -12.98941,4.365143 -1.16707,0.394078 -1.16702,1.273208 -1.16702,1.273208 v 3.183026 c 0,0.454699 0.48496,0.712256 0.48496,0.712256 0,0 8.59403,1.834062 9.71563,2.031095 1.12161,0.197039 1.65199,-0.136377 1.65199,-0.136377 l 0.75788,-0.318388 1.7e-4,-9.84e-4 c 0.002,0.08755 0.006,0.363676 0.006,0.363676 0,0 -0.12863,0.471649 0.47155,0.55739 0.60019,0.08574 9.64576,2.057728 9.64576,2.057728 0,0 0.9432,0.128643 1.67199,-0.128577 0.72879,-0.25722 12.90376,-4.2442 12.90376,-4.2442 0,0 0.55739,-0.214269 0.55739,-0.728712 0,-0.514439 -0.0858,-3.258168 -0.0858,-3.258168 0,0 0.1767,-0.625366 -1.15227,-1.225543 l -0.0356,-0.0068 c 1.64932,-0.01457 2.80649,-0.478323 4.40551,-0.888331 2.36447,-0.606266 5.03195,-4.425868 5.03195,-4.425868 0,0 4.42581,-20.067758 4.91082,-23.220378 0.48502,-3.152621 -2.00073,-3.819459 -2.00073,-3.819459 L 183.28032,8.6342152 c -0.16645,-0.058628 -0.27666,-0.080742 -0.27666,-0.080742 0,0 -19.94656,-4.3045005 -22.00789,-4.6682644 -0.12883,-0.022734 -0.25381,-0.034588 -0.37504,-0.036808 z" />
      <path
         style="fill:#ff6600;stroke:#000000;stroke-width:0.328245;stroke-linecap:round;stroke-linejoin:round;stroke-dasharray:none;stroke-opacity:1"
         d="m 167.77095,52.311294 -0.75784,0.318293 c 0,0 -0.53049,0.333452 -1.6521,0.136413 -1.12161,-0.19704 -9.71555,-2.031019 -9.71555,-2.031019 0,0 -0.48502,-0.257666 -0.48502,-0.712371 v -3.182941 c 0,0 0,-0.879097 1.16708,-1.273175 1.16708,-0.394079 12.98943,-4.365176 12.98943,-4.365176 l 12.86817,-0.970037 2.72076,7.054182 z"
         id="path449"
         sodipodi:nodetypes="ccscscscccc" />
      <path
         style="fill:#ff6600;stroke:#000000;stroke-width:0.328245;stroke-linecap:round;stroke-linejoin:round;stroke-dasharray:none;stroke-opacity:1"
         d="m 181.96752,43.842906 -13.24685,4.372745 c 0,0 -0.98602,0.471571 -0.98602,1.371843 0,0.900272 0.0429,3.086643 0.0429,3.086643 0,0 -0.12861,0.47157 0.47158,0.557311 0.60018,0.08574 9.64576,2.057765 9.64576,2.057765 0,0 0.94314,0.128609 1.67193,-0.12861 0.72879,-0.25722 12.90389,-4.244138 12.90389,-4.244138 0,0 0.55731,-0.214348 0.55731,-0.728791 0,-0.514439 -0.0857,-3.258125 -0.0857,-3.258125 0,0 0.17668,-0.625294 -1.15229,-1.225474"
         id="path447"
         sodipodi:nodetypes="ccscscscscc" />
      <path
         style="fill:#ff6600;stroke:#000000;stroke-width:0.328245;stroke-linecap:round;stroke-linejoin:round;stroke-dasharray:none;stroke-opacity:1"
         d="m 182.65498,8.4928242 21.44695,4.8501938 c 0,0 2.48573,0.666902 2.00071,3.819527 -0.48502,3.152627 -4.91082,23.220303 -4.91082,23.220303 0,0 -2.66761,3.81953 -5.03208,4.425802 -2.36447,0.606276 -3.7589,1.333803 -7.21466,0.545649 -3.45577,-0.788156 -13.92915,-2.955587 -13.92915,-2.955587"
         id="path343"
         sodipodi:nodetypes="ccscssc" />
      <path
         style="fill:#ff6600;stroke:#000000;stroke-width:0.328245;stroke-linecap:round;stroke-linejoin:round;stroke-dasharray:none;stroke-opacity:1"
         d="m 157.84321,5.9464726 c 0,0 1.09129,-2.4250971 3.15262,-2.0613322 2.06134,0.3637645 22.00776,4.6683117 22.00776,4.6683117 0,0 2.60698,0.4850191 2.06133,3.6982719 -0.54565,3.213254 -6.00212,27.585478 -6.00212,27.585478 0,0 -0.6669,3.213254 -3.45576,2.667609 -2.78886,-0.545649 -22.06838,-4.668314 -22.06838,-4.668314 0,0 -2.4251,-0.666903 -1.81882,-3.577019 0.60627,-2.910115 6.12337,-28.3130054 6.12337,-28.3130054 z"
         id="path233" />
      <path
         style="fill:#ff6600;stroke:#000000;stroke-width:0.328245;stroke-linecap:round;stroke-linejoin:round;stroke-dasharray:none;stroke-opacity:1"
         d="m 188.82672,9.8469459 c 0,0 2.52934,0.6859221 1.92916,3.7296961 -0.60018,3.043773 -5.91607,27.565451 -5.91607,27.565451 0,0 -0.60018,3.129512 -3.7297,2.529331"
         id="path441"
         sodipodi:nodetypes="cscc" />
      <path
         style="fill:#ffffff;stroke:#000000;stroke-width:0.196947;stroke-linecap:round;stroke-linejoin:miter;stroke-dasharray:none;stroke-opacity:1"
         d="m 159.5036,9.4611154 22.29244,4.7157066 -4.80145,22.592523 -22.3353,-4.629964 z"
         id="path443" />
      <path
         style="fill:none;stroke:#000000;stroke-width:0.196947;stroke-linecap:round;stroke-linejoin:round;stroke-dasharray:none;stroke-opacity:1"
         d="M 159.84656,9.5468557 154.95938,32.182249"
         id="path445" />
      <path
         style="fill:#000000;fill-opacity:1;stroke:none;stroke-width:0.328245;stroke-linecap:round;stroke-linejoin:round;stroke-dasharray:none"
         d="m 164.81536,25.074426 6.07346,1.2447 -0.13197,0.665061 -6.05386,-1.285731 z"
         id="path451"
         sodipodi:nodetypes="ccccc" />
      <path
         style="fill:#000000;fill-opacity:1;stroke:none;stroke-width:0.328245;stroke-linecap:round;stroke-linejoin:round;stroke-dasharray:none"
         d="m 174.27324,20.830504 c 0,0 0.61841,0.201526 0.45471,1.060981 -0.12126,0.636586 -0.57597,0.848784 -0.90942,0.757844 -0.41873,-0.1142 -0.60627,-0.63659 -0.51533,-1.030668 0.0909,-0.394078 0.33345,-0.909411 0.97004,-0.788157 z"
         id="path453"
         sodipodi:nodetypes="csssc" />
      <path
         style="fill:#000000;fill-opacity:1;stroke:none;stroke-width:0.328245;stroke-linecap:round;stroke-linejoin:round;stroke-dasharray:none"
         d="m 164.11815,18.738858 c 0.42439,0.09094 0.64779,0.508873 0.48502,1.151922 -0.13505,0.533504 -0.54565,0.757843 -0.90942,0.666903 -0.27899,-0.06975 -0.60627,-0.515336 -0.51533,-1.000354 0.0909,-0.485019 0.51533,-0.879097 0.93973,-0.818471 z"
         id="path455"
         sodipodi:nodetypes="csssc" />
      <path
         style="fill:none;stroke:#000000;stroke-width:0.196947;stroke-linecap:round;stroke-linejoin:round;stroke-dasharray:none;stroke-opacity:1"
         d="m 195.26549,24.528777 c 0.30051,0.02363 1.17822,0.302435 0.84878,2.319001 -0.29105,1.781549 -1.3338,2.121959 -1.7582,2.046174 -0.42439,-0.07578 -1.19739,-0.560804 -0.8791,-2.318998 0.3183,-1.758194 1.1898,-2.093238 1.78852,-2.046177 z"
         id="path1188"
         sodipodi:nodetypes="sssss" />
      <path
         style="fill:none;stroke:#000000;stroke-width:0.196947;stroke-linecap:round;stroke-linejoin:round;stroke-dasharray:none;stroke-opacity:1"
         d="m 194.64521,25.219832 c 0.18437,0.01986 0.71964,0.215877 0.48605,1.537383 -0.20637,1.167494 -0.85264,1.37636 -1.11237,1.320404 -0.25972,-0.05596 -0.72744,-0.386069 -0.50469,-1.537817 0.22276,-1.151748 0.76367,-1.359547 1.13101,-1.31997 z"
         id="path1188-5"
         sodipodi:nodetypes="sssss" />
      <path
         style="fill:#ff6600;stroke:#000000;stroke-width:0.196947;stroke-linecap:round;stroke-linejoin:round;stroke-dasharray:none;stroke-opacity:1"
         d="m 168.2105,49.719472 7.33401,1.554997 m 2.24512,0.476021 c 0,0 1.21255,0.151571 1.81882,-0.0303 m 1.10881,-0.371147 c 2.65922,-0.903302 9.23486,-3.168048 11.27917,-3.872462"
         id="path1236"
         sodipodi:nodetypes="cccccc" />
      <path
         style="fill:#ff6600;stroke:#000000;stroke-width:0.196947;stroke-linecap:round;stroke-linejoin:round;stroke-dasharray:none;stroke-opacity:1"
         d="m 155.59999,47.142807 7.4412,1.572746 m 2.16825,0.458273 c 0,0 0.93972,0.121254 1.78851,-0.09094"
         id="path1238"
         sodipodi:nodetypes="cccc" />
    </g>
  </g>
</svg>
