<?xml version="1.0" encoding="UTF-8" standalone="no"?>
<!-- Created with Inkscape (http://www.inkscape.org/) -->

<svg
   width="321.05182mm"
   height="117.49696mm"
   viewBox="0 0 321.05182 117.49696"
   version="1.1"
   id="svg1"
   inkscape:version="1.3.2 (091e20e, 2023-11-25)"
   sodipodi:docname="stackchan-many.svg"
   xmlns:inkscape="http://www.inkscape.org/namespaces/inkscape"
   xmlns:sodipodi="http://sodipodi.sourceforge.net/DTD/sodipodi-0.dtd"
   xmlns="http://www.w3.org/2000/svg"
   xmlns:svg="http://www.w3.org/2000/svg">
  <sodipodi:namedview
     id="namedview1"
     pagecolor="#ffffff"
     bordercolor="#000000"
     borderopacity="0.25"
     inkscape:showpageshadow="2"
     inkscape:pageopacity="0.0"
     inkscape:pagecheckerboard="0"
     inkscape:deskcolor="#d1d1d1"
     inkscape:document-units="mm"
     inkscape:zoom="0.53246051"
     inkscape:cx="553.09266"
     inkscape:cy="144.61166"
     inkscape:window-width="1664"
     inkscape:window-height="1027"
     inkscape:window-x="2172"
     inkscape:window-y="25"
     inkscape:window-maximized="0"
     inkscape:current-layer="layer1" />
  <defs
     id="defs1" />
  <g
     inkscape:label="Layer 1"
     inkscape:groupmode="layer"
     id="layer1"
     transform="translate(44.794655,-87.088067)">
    <g
       id="g2"
       transform="matrix(1.3692028,0,0,1.3692028,-6.9185974,99.398153)">
      <path
         id="path233-4"
         style="display:inline;fill:#ffffff;stroke:#000000;stroke-width:1.31298;stroke-linecap:round;stroke-linejoin:round;stroke-dasharray:none;stroke-opacity:1"
         d="m 160.62073,3.8484005 c -1.81838,-0.033304 -2.77745,2.0980983 -2.77745,2.0980983 0,0 -5.51721,25.4029362 -6.12347,28.3130452 -0.60628,2.910109 1.81889,3.576894 1.81889,3.576894 0,0 9.20969,1.968698 15.78432,3.3574 -0.002,0.0026 -0.004,0.0048 -0.006,0.0073 v 1.7e-4 c 0,0 -11.82233,3.971065 -12.98941,4.365143 -1.16707,0.394078 -1.16702,1.273208 -1.16702,1.273208 v 3.183026 c 0,0.454699 0.48496,0.712256 0.48496,0.712256 0,0 8.59403,1.834062 9.71563,2.031095 1.12161,0.197039 1.65199,-0.136377 1.65199,-0.136377 l 0.75788,-0.318388 1.7e-4,-9.84e-4 c 0.002,0.08755 0.006,0.363676 0.006,0.363676 0,0 -0.12863,0.471649 0.47155,0.55739 0.60019,0.08574 9.64576,2.057728 9.64576,2.057728 0,0 0.9432,0.128643 1.67199,-0.128577 0.72879,-0.25722 12.90376,-4.2442 12.90376,-4.2442 0,0 0.55739,-0.214269 0.55739,-0.728712 0,-0.514439 -0.0858,-3.258168 -0.0858,-3.258168 0,0 0.1767,-0.625366 -1.15227,-1.225543 l -0.0356,-0.0068 c 1.64932,-0.01457 2.80649,-0.478323 4.40551,-0.888331 2.36447,-0.606266 5.03195,-4.425868 5.03195,-4.425868 0,0 4.42581,-20.067758 4.91082,-23.220378 0.48502,-3.152621 -2.00073,-3.819459 -2.00073,-3.819459 L 183.28032,8.6342152 c -0.16645,-0.058628 -0.27666,-0.080742 -0.27666,-0.080742 0,0 -19.94656,-4.3045005 -22.00789,-4.6682644 -0.12883,-0.022734 -0.25381,-0.034588 -0.37504,-0.036808 z" />
      <path
         style="fill:#ff6600;stroke:#000000;stroke-width:0.328245;stroke-linecap:round;stroke-linejoin:round;stroke-dasharray:none;stroke-opacity:1"
         d="m 167.77095,52.311294 -0.75784,0.318293 c 0,0 -0.53049,0.333452 -1.6521,0.136413 -1.12161,-0.19704 -9.71555,-2.031019 -9.71555,-2.031019 0,0 -0.48502,-0.257666 -0.48502,-0.712371 v -3.182941 c 0,0 0,-0.879097 1.16708,-1.273175 1.16708,-0.394079 12.98943,-4.365176 12.98943,-4.365176 l 12.86817,-0.970037 2.72076,7.054182 z"
         id="path449"
         sodipodi:nodetypes="ccscscscccc" />
      <path
         style="fill:#ff6600;stroke:#000000;stroke-width:0.328245;stroke-linecap:round;stroke-linejoin:round;stroke-dasharray:none;stroke-opacity:1"
         d="m 181.96752,43.842906 -13.24685,4.372745 c 0,0 -0.98602,0.471571 -0.98602,1.371843 0,0.900272 0.0429,3.086643 0.0429,3.086643 0,0 -0.12861,0.47157 0.47158,0.557311 0.60018,0.08574 9.64576,2.057765 9.64576,2.057765 0,0 0.94314,0.128609 1.67193,-0.12861 0.72879,-0.25722 12.90389,-4.244138 12.90389,-4.244138 0,0 0.55731,-0.214348 0.55731,-0.728791 0,-0.514439 -0.0857,-3.258125 -0.0857,-3.258125 0,0 0.17668,-0.625294 -1.15229,-1.225474"
         id="path447"
         sodipodi:nodetypes="ccscscscscc" />
      <path
         style="fill:#ff6600;stroke:#000000;stroke-width:0.328245;stroke-linecap:round;stroke-linejoin:round;stroke-dasharray:none;stroke-opacity:1"
         d="m 182.65498,8.4928242 21.44695,4.8501938 c 0,0 2.48573,0.666902 2.00071,3.819527 -0.48502,3.152627 -4.91082,23.220303 -4.91082,23.220303 0,0 -2.66761,3.81953 -5.03208,4.425802 -2.36447,0.606276 -3.7589,1.333803 -7.21466,0.545649 -3.45577,-0.788156 -13.92915,-2.955587 -13.92915,-2.955587"
         id="path343"
         sodipodi:nodetypes="ccscssc" />
      <path
         style="fill:#ff6600;stroke:#000000;stroke-width:0.328245;stroke-linecap:round;stroke-linejoin:round;stroke-dasharray:none;stroke-opacity:1"
         d="m 157.84321,5.9464726 c 0,0 1.09129,-2.4250971 3.15262,-2.0613322 2.06134,0.3637645 22.00776,4.6683117 22.00776,4.6683117 0,0 2.60698,0.4850191 2.06133,3.6982719 -0.54565,3.213254 -6.00212,27.585478 -6.00212,27.585478 0,0 -0.6669,3.213254 -3.45576,2.667609 -2.78886,-0.545649 -22.06838,-4.668314 -22.06838,-4.668314 0,0 -2.4251,-0.666903 -1.81882,-3.577019 0.60627,-2.910115 6.12337,-28.3130054 6.12337,-28.3130054 z"
         id="path233" />
      <path
         style="fill:#ff6600;stroke:#000000;stroke-width:0.328245;stroke-linecap:round;stroke-linejoin:round;stroke-dasharray:none;stroke-opacity:1"
         d="m 188.82672,9.8469459 c 0,0 2.52934,0.6859221 1.92916,3.7296961 -0.60018,3.043773 -5.91607,27.565451 -5.91607,27.565451 0,0 -0.60018,3.129512 -3.7297,2.529331"
         id="path441"
         sodipodi:nodetypes="cscc" />
      <path
         style="fill:#ffffff;stroke:#000000;stroke-width:0.196947;stroke-linecap:round;stroke-linejoin:miter;stroke-dasharray:none;stroke-opacity:1"
         d="m 159.5036,9.4611154 22.29244,4.7157066 -4.80145,22.592523 -22.3353,-4.629964 z"
         id="path443" />
      <path
         style="fill:none;stroke:#000000;stroke-width:0.196947;stroke-linecap:round;stroke-linejoin:round;stroke-dasharray:none;stroke-opacity:1"
         d="M 159.84656,9.5468557 154.95938,32.182249"
         id="path445" />
      <path
         style="fill:#000000;fill-opacity:1;stroke:none;stroke-width:0.328245;stroke-linecap:round;stroke-linejoin:round;stroke-dasharray:none"
         d="m 164.81536,25.074426 6.07346,1.2447 -0.13197,0.665061 -6.05386,-1.285731 z"
         id="path451"
         sodipodi:nodetypes="ccccc" />
      <path
         style="fill:#000000;fill-opacity:1;stroke:none;stroke-width:0.328245;stroke-linecap:round;stroke-linejoin:round;stroke-dasharray:none"
         d="m 174.27324,20.830504 c 0,0 0.61841,0.201526 0.45471,1.060981 -0.12126,0.636586 -0.57597,0.848784 -0.90942,0.757844 -0.41873,-0.1142 -0.60627,-0.63659 -0.51533,-1.030668 0.0909,-0.394078 0.33345,-0.909411 0.97004,-0.788157 z"
         id="path453"
         sodipodi:nodetypes="csssc" />
      <path
         style="fill:#000000;fill-opacity:1;stroke:none;stroke-width:0.328245;stroke-linecap:round;stroke-linejoin:round;stroke-dasharray:none"
         d="m 164.11815,18.738858 c 0.42439,0.09094 0.64779,0.508873 0.48502,1.151922 -0.13505,0.533504 -0.54565,0.757843 -0.90942,0.666903 -0.27899,-0.06975 -0.60627,-0.515336 -0.51533,-1.000354 0.0909,-0.485019 0.51533,-0.879097 0.93973,-0.818471 z"
         id="path455"
         sodipodi:nodetypes="csssc" />
      <path
         style="fill:none;stroke:#000000;stroke-width:0.196947;stroke-linecap:round;stroke-linejoin:round;stroke-dasharray:none;stroke-opacity:1"
         d="m 195.26549,24.528777 c 0.30051,0.02363 1.17822,0.302435 0.84878,2.319001 -0.29105,1.781549 -1.3338,2.121959 -1.7582,2.046174 -0.42439,-0.07578 -1.19739,-0.560804 -0.8791,-2.318998 0.3183,-1.758194 1.1898,-2.093238 1.78852,-2.046177 z"
         id="path1188"
         sodipodi:nodetypes="sssss" />
      <path
         style="fill:none;stroke:#000000;stroke-width:0.196947;stroke-linecap:round;stroke-linejoin:round;stroke-dasharray:none;stroke-opacity:1"
         d="m 194.64521,25.219832 c 0.18437,0.01986 0.71964,0.215877 0.48605,1.537383 -0.20637,1.167494 -0.85264,1.37636 -1.11237,1.320404 -0.25972,-0.05596 -0.72744,-0.386069 -0.50469,-1.537817 0.22276,-1.151748 0.76367,-1.359547 1.13101,-1.31997 z"
         id="path1188-5"
         sodipodi:nodetypes="sssss" />
      <path
         style="fill:#ff6600;stroke:#000000;stroke-width:0.196947;stroke-linecap:round;stroke-linejoin:round;stroke-dasharray:none;stroke-opacity:1"
         d="m 168.2105,49.719472 7.33401,1.554997 m 2.24512,0.476021 c 0,0 1.21255,0.151571 1.81882,-0.0303 m 1.10881,-0.371147 c 2.65922,-0.903302 9.23486,-3.168048 11.27917,-3.872462"
         id="path1236"
         sodipodi:nodetypes="cccccc" />
      <path
         style="fill:#ff6600;stroke:#000000;stroke-width:0.196947;stroke-linecap:round;stroke-linejoin:round;stroke-dasharray:none;stroke-opacity:1"
         d="m 155.59999,47.142807 7.4412,1.572746 m 2.16825,0.458273 c 0,0 0.93972,0.121254 1.78851,-0.09094"
         id="path1238"
         sodipodi:nodetypes="cccc" />
    </g>
    <g
       id="g1"
       transform="translate(-0.99381387,-5.9628834)">
      <path
         id="path3576-3-2"
         style="fill:none;fill-opacity:1;stroke:#000000;stroke-width:1.62391;stroke-linecap:round;stroke-linejoin:miter;stroke-dasharray:none;stroke-opacity:1"
         d="m -3.2874047,95.346351 c -0.4440582,-0.01326 -0.7091047,0.09273 -0.7091047,0.09273 0,0 -28.0488296,12.672309 -29.1622906,13.149509 -1.113466,0.4772 -1.590663,1.96179 -1.590663,1.96179 l -8.006396,27.57143 c -0.901374,3.23434 1.060515,4.87815 1.060515,4.87815 0,0 3.325075,2.41278 4.81269,3.4937 l -1.121351,0.85009 c 0,0 -0.656238,0.45001 -0.656238,1.03114 v 1.40584 1.83717 c 0,0 -0.09376,0.20621 0.431128,0.58113 0.524892,0.37492 10.854142,7.91094 10.854142,7.91094 0,0 0.562117,0.48414 1.218489,0.48735 0.655803,0.003 1.218487,-0.46868 1.218487,-0.46868 l 0.687288,-0.55176 v 0.61869 1.83695 c 0,0 -0.09377,0.20621 0.431128,0.58114 0.524891,0.37492 10.854137,7.91094 10.854137,7.91094 0,0 0.562113,0.48414 1.218489,0.48735 0.6558,0.003 1.218487,-0.46868 1.218487,-0.46868 L 7.4303764,156.12765 c 0,0 0.4311277,-0.24381 0.4311277,-0.71247 0,-0.46865 -0.018878,-2.73698 -0.018878,-2.73698 l -0.1818901,0.0252 3.241954,-1.48492 c 0,0 0.848423,-0.37124 2.651179,-2.06795 1.802747,-1.69671 5.249061,-6.09747 5.249061,-6.09747 0,0 5.885594,-19.98948 6.893015,-23.59498 1.007421,-3.6055 -2.014871,-5.30214 -2.014871,-5.30214 0,0 -23.75404254,-17.232285 -25.1856409,-18.186682 -0.7157992,-0.4772 -1.3387757,-0.609625 -1.7828339,-0.622881 z" />
      <path
         style="fill:#0000ff;fill-opacity:1;stroke:#000000;stroke-width:0.405977;stroke-linecap:round;stroke-linejoin:miter;stroke-dasharray:none;stroke-opacity:1"
         d="m -36.841835,146.4627 -1.162262,0.88108 c 0,0 -0.656116,0.4499 -0.656116,1.03103 v 1.40596 1.83713 c 0,0 -0.09373,0.20621 0.431161,0.58113 0.524894,0.37492 10.854028,7.91088 10.854028,7.91088 0,0 0.562126,0.48419 1.218501,0.4874 0.655803,0.003 1.218501,-0.46865 1.218501,-0.46865 l 17.9588245,-14.4158 c 0,0 0.4311603,-0.2437 0.4311603,-0.71236 0,-0.46865 -0.018756,-2.73694 -0.018756,-2.73694"
         id="path3576-3"
         sodipodi:nodetypes="ccsccscsccsc" />
      <path
         style="fill:#0000ff;fill-opacity:1;stroke:#000000;stroke-width:0.405977;stroke-linecap:round;stroke-linejoin:miter;stroke-dasharray:none;stroke-opacity:1"
         d="m -22.432362,156.87741 -1.162262,0.88107 c 0,0 -0.656116,0.44991 -0.656116,1.03104 v 1.40596 1.83713 c 0,0 -0.09373,0.2062 0.431161,0.58113 0.524894,0.37492 10.854028,7.91088 10.854028,7.91088 0,0 0.562126,0.48419 1.218501,0.4874 0.655803,0.003 1.218501,-0.46866 1.218501,-0.46866 L 7.4302749,156.12757 c 0,0 0.4311602,-0.2437 0.4311602,-0.71236 0,-0.46865 -0.018756,-2.73694 -0.018756,-2.73694"
         id="path3576"
         sodipodi:nodetypes="ccsccscsccsc" />
      <path
         style="fill:#0000ff;fill-opacity:1;stroke:#000000;stroke-width:0.243587;stroke-linecap:round;stroke-linejoin:miter;stroke-dasharray:none;stroke-opacity:1"
         d="m -36.826433,150.61211 7.666316,5.58754 m 0.769641,0.56094 1.07169,0.7811 c 0,0 0.439166,0.32887 1.124771,0.31868 0.725219,-0.0108 1.143517,-0.39367 1.143517,-0.39367 l 18.0900445,-14.47203"
         id="path3578-6"
         sodipodi:nodetypes="ccccscc" />
      <path
         style="fill:#0000ff;fill-opacity:1;stroke:#000000;stroke-width:0.405977;stroke-linecap:round;stroke-linejoin:miter;stroke-dasharray:none;stroke-opacity:1"
         d="m -42.755787,138.12188 8.006344,-27.57152 c 0,0 0.4772,-1.48462 1.590666,-1.96182 1.113464,-0.4772 29.1621824,-13.149489 29.1621824,-13.149489 0,0 1.0604416,-0.424178 2.49204,0.530221 1.43159834,0.954399 25.1855236,18.186598 25.1855236,18.186598 0,0 3.022263,1.69671 2.014842,5.30222 -1.007421,3.6055 -6.892881,23.59485 -6.892881,23.59485 0,0 -3.44644,4.40084 -5.249191,6.09755 -1.802755,1.69671 -2.65111,2.06786 -2.65111,2.06786 l -23.382767,10.71048 c 0,0 -1.431599,1.00742 -3.075285,-0.053 -1.643687,-1.06045 -26.139921,-18.87589 -26.139921,-18.87589 0,0 -1.96182,-1.64369 -1.060443,-4.87804 z"
         id="path3520" />
      <path
         style="fill:none;fill-opacity:1;stroke:#000000;stroke-width:0.405977;stroke-linecap:round;stroke-linejoin:miter;stroke-dasharray:none;stroke-opacity:1"
         d="m -33.530089,108.77476 c 0,0 1.387215,-0.50615 2.774431,0.4874 1.387216,0.99355 25.2885723,18.27751 25.2885723,18.27751 0,0 2.7556859,2.06208 1.8933613,5.19268 -0.8623206,3.13061 -8.2295636,27.91304 -8.2295636,27.91304 0,0 -0.356178,1.18101 -1.687155,1.66841"
         id="path3522"
         sodipodi:nodetypes="cscscc" />
      <path
         style="fill:none;fill-opacity:1;stroke:#000000;stroke-width:0.405977;stroke-linecap:round;stroke-linejoin:miter;stroke-dasharray:none;stroke-opacity:1"
         d="m -25.619209,105.19424 c 0,0 1.443453,-0.52489 2.793177,0.44991 1.349724,0.9748 25.2885716,18.24002 25.2885716,18.24002 0,0 2.7931778,2.28703 1.9308532,5.24892 -0.8623205,2.9619 -8.1920693,27.83805 -8.1920693,27.83805 0,0 -0.4124163,1.29349 -1.1435128,1.4997"
         id="path3524"
         sodipodi:nodetypes="cscscc" />
      <path
         style="fill:#ffffff;fill-opacity:1;stroke:#000000;stroke-width:0.243586;stroke-linecap:round;stroke-linejoin:miter;stroke-dasharray:none;stroke-opacity:1"
         d="m -14.202797,156.20255 6.78611,-22.87032 -25.269825,-18.315 -6.823603,22.83283 z"
         id="path3526" />
      <path
         style="fill:#ffffff;fill-opacity:1;stroke:#000000;stroke-width:0.243587;stroke-linecap:round;stroke-linejoin:miter;stroke-dasharray:none;stroke-opacity:1"
         d="m -14.165305,155.84637 -24.969887,-18.10879 6.711126,-22.49539"
         id="path3528" />
      <path
         style="fill:#0000ff;fill-opacity:1;stroke:#000000;stroke-width:0.243587;stroke-linecap:round;stroke-linejoin:miter;stroke-dasharray:none;stroke-opacity:1"
         d="m -22.193969,161.18934 7.196301,5.24497 m 2.088355,1.52208 c 0,0 0.346667,0.3139 1.124771,0.31869 0.659207,0.004 1.143517,-0.39367 1.143517,-0.39367 l 0.6426339,-0.51411 m 1.2301767,-0.98414 13.8808207,-11.10466"
         id="path3578"
         sodipodi:nodetypes="cccscccc" />
      <path
         style="fill:none;fill-opacity:1;stroke:#000000;stroke-width:0.243586;stroke-linecap:round;stroke-linejoin:miter;stroke-dasharray:none;stroke-opacity:1"
         d="m 11.55443,134.51324 c 0.499835,0.30469 0.299936,1.36847 -0.05624,2.11832 -0.558699,1.1762 -1.7246456,2.17455 -2.324522,2.3995 -0.4556935,0.17089 -0.8810726,0.13123 -1.0872807,-0.22495 -0.2062041,-0.35618 0.094223,-1.67454 0.5436403,-2.38076 0.5248924,-0.82483 1.1088829,-1.34538 1.4809494,-1.59343 0.61862,-0.41241 1.225739,-0.45139 1.443453,-0.31868 z"
         id="path3657"
         sodipodi:nodetypes="sssssss" />
      <path
         style="fill:none;fill-opacity:1;stroke:#000000;stroke-width:0.243587;stroke-linecap:round;stroke-linejoin:miter;stroke-dasharray:none;stroke-opacity:1"
         d="m 10.335929,134.71945 c 0,0 0.678404,-0.19812 0.37492,0.71235 -0.112472,0.33744 -0.29994,0.95606 -0.8060846,1.63092 -0.2952349,0.39365 -1.5184369,1.51844 -1.8183771,0.88107"
         id="path3659"
         sodipodi:nodetypes="cssc" />
      <path
         id="path4439"
         style="fill:#000000;fill-opacity:1;stroke:none;stroke-width:0.269033;stroke-linecap:round"
         d="m -27.361743,128.43532 c 0.268673,0.67099 0.115792,1.25388 -0.335689,1.48977 -0.36089,0.18859 -1.087885,-0.0587 -1.346129,-0.74229 -0.196501,-0.52015 -0.122634,-1.27783 0.33569,-1.50013 0.495476,-0.24033 1.093658,0.12213 1.346128,0.75265 z"
         sodipodi:nodetypes="sssss" />
      <path
         id="path4439-0"
         style="fill:#000000;fill-opacity:1;stroke:none;stroke-width:0.269033;stroke-linecap:round"
         d="m -15.907884,136.77593 c 0.268673,0.67099 0.115793,1.25388 -0.335689,1.48978 -0.36089,0.18858 -1.087885,-0.0587 -1.346129,-0.7423 -0.1965,-0.52014 -0.122634,-1.27782 0.33569,-1.50012 0.495476,-0.24034 1.093658,0.12212 1.346128,0.75264 z"
         sodipodi:nodetypes="sssss" />
      <path
         style="fill:#000000;fill-opacity:1;stroke:none;stroke-width:0.243587;stroke-linecap:round;stroke-linejoin:miter;stroke-dasharray:none;stroke-opacity:1"
         d="m -27.472152,135.41775 -0.172322,0.82185 6.959157,5.0371 0.185577,-0.80859 z"
         id="path4464"
         sodipodi:nodetypes="ccccc" />
    </g>
    <g
       id="g5"
       transform="translate(6.9566973,-69.070067)">
      <path
         id="path4750-6-5"
         style="fill:#ff8080;fill-opacity:1;stroke:#000000;stroke-width:1.57118;stroke-linecap:round;stroke-linejoin:round;stroke-dasharray:none;stroke-opacity:1"
         d="m 161.97442,202.97946 c 0,0 -29.34651,0.97942 -31.99458,1.12452 -2.64808,0.14511 -2.90205,3.22845 -2.90205,3.22845 0,0 -4.82446,29.99947 -5.29603,33.73579 -0.47158,3.73632 2.10391,4.60711 2.10391,4.60711 l 13.94108,4.7427 -6.57726,6.50256 c 0,0 -0.43539,0.43529 -0.43539,1.48726 0,1.05197 0.0363,3.62751 0.0363,3.62751 0,0 0.14506,0.72543 0.97939,0.83426 0.83433,0.10883 14.00217,2.10392 14.00217,2.10392 0,0 0.97942,0.39909 1.99512,-0.58033 0.19673,-0.1897 0.72049,-0.71319 1.35532,-1.35004 0.0104,0.96742 0.0231,1.89403 0.0231,1.89403 0,0 0.14506,0.72564 0.97939,0.83447 0.83432,0.10883 14.00217,2.10392 14.00217,2.10392 0,0 0.97943,0.39889 1.99513,-0.58053 1.0157,-0.97943 9.39527,-9.46774 9.39527,-9.46774 0,0 0.13606,-0.1995 0.14513,-0.36273 0.0162,-0.29201 -0.0363,-3.66385 -0.0363,-3.66385 0,0 0.14357,-0.60307 -0.87181,-1.48989 6.47899,-2.26231 9.17889,-7.57878 9.17889,-7.57878 0,0 3.99032,-24.7033 4.53444,-28.47589 0.54413,-3.7726 -2.10412,-4.78837 -2.10412,-4.78837 z" />
      <path
         style="fill:#ffff00;fill-opacity:1;stroke:#000000;stroke-width:0.392796;stroke-linecap:round;stroke-linejoin:round;stroke-dasharray:none;stroke-opacity:1"
         d="m 137.83545,250.40928 -6.58596,6.51121 c 0,0 -0.4353,0.4353 -0.4353,1.48728 0,1.05197 0.0363,3.6275 0.0363,3.6275 0,0 0.14511,0.7255 0.97943,0.83433 0.83433,0.10882 14.00216,2.10395 14.00216,2.10395 0,0 0.97943,0.39902 1.99513,-0.5804 1.0157,-0.97943 9.39523,-9.46778 9.39523,-9.46778 0,0 0.13603,-0.19952 0.1451,-0.36276 0.0162,-0.292 -0.0362,-3.66377 -0.0362,-3.66377"
         id="path4756-2-0"
         sodipodi:nodetypes="ccscscscsc" />
      <path
         style="fill:#ffff00;fill-opacity:1;stroke:#000000;stroke-width:0.392796;stroke-linecap:round;stroke-linejoin:round;stroke-dasharray:none;stroke-opacity:1"
         d="m 155.62631,253.83712 -6.02165,5.98537 c 0,0 -0.43531,0.4353 -0.43531,1.48728 0,1.05198 0.0363,3.6275 0.0363,3.6275 0,0 0.1451,0.7255 0.97942,0.83433 0.83433,0.10883 14.00217,2.10395 14.00217,2.10395 0,0 0.97942,0.39902 1.99512,-0.5804 1.0157,-0.97943 9.39524,-9.46778 9.39524,-9.46778 0,0 0.13603,-0.19951 0.1451,-0.36275 0.0162,-0.29201 -0.0363,-3.66378 -0.0363,-3.66378 0,0 0.22744,-0.94672 -1.8863,-2.21278"
         id="path4756-4"
         sodipodi:nodetypes="ccscscscscc" />
      <path
         style="fill:#ffff00;fill-opacity:1;stroke:#000000;stroke-width:0.392796;stroke-linecap:round;stroke-linejoin:round;stroke-dasharray:none;stroke-opacity:1"
         d="m 123.88566,245.67523 c 0,0 -2.57553,-0.8706 -2.10395,-4.60692 0.47158,-3.73633 5.29615,-33.73578 5.29615,-33.73578 0,0 0.25393,-3.08338 2.90201,-3.22848 2.64807,-0.1451 31.99457,-1.12452 31.99457,-1.12452 l 24.44937,8.48835 c 0,0 2.64807,1.0157 2.10395,4.78831 -0.54413,3.7726 -4.53438,28.47589 -4.53438,28.47589 0,0 -2.72851,5.37746 -9.2864,7.61776 -3.46001,1.182 -6.4464,1.08422 -6.4464,1.08422 l -19.74417,0.6207 z"
         id="path4750-1"
         sodipodi:nodetypes="cscsccscsccc" />
      <path
         style="fill:none;fill-opacity:1;stroke:#000000;stroke-width:0.392796;stroke-linecap:round;stroke-linejoin:round;stroke-dasharray:none;stroke-opacity:1"
         d="m 130.35104,204.08463 24.3684,8.4715 c 0,0 2.7569,0.90688 2.1765,4.86086 -0.5804,3.95398 -5.29616,33.62695 -5.29616,33.62695 0,0 -0.0363,2.82945 -3.01083,2.97455"
         id="path4752-4"
         sodipodi:nodetypes="ccscc" />
      <path
         style="fill:none;fill-opacity:1;stroke:#000000;stroke-width:0.392796;stroke-linecap:round;stroke-linejoin:round;stroke-dasharray:none;stroke-opacity:1"
         d="m 138.7941,203.73926 24.49606,8.51591 c 0,0 2.75741,0.75669 2.18027,4.80943 -0.57713,4.05276 -5.30961,33.73017 -5.30961,33.73017 0,0 -0.60917,2.74131 -2.39831,2.92414 l -0.69475,0.071"
         id="path4754-7"
         sodipodi:nodetypes="ccscsc" />
      <path
         style="fill:#ffff00;fill-opacity:1;stroke:#000000;stroke-width:0.235678;stroke-linecap:round;stroke-linejoin:round;stroke-dasharray:none;stroke-opacity:1"
         d="m 151.89133,261.84503 10.80413,1.63457 m 1.35138,0.20446 c 0,0 1.54551,0.27437 2.05203,-0.25651 0.70294,-0.73674 8.87501,-8.87501 8.87501,-8.87501"
         id="path4758-5"
         sodipodi:nodetypes="cccsc" />
      <path
         style="fill:#ffff00;fill-opacity:1;stroke:#000000;stroke-width:0.235678;stroke-linecap:round;stroke-linejoin:round;stroke-dasharray:none;stroke-opacity:1"
         d="m 131.78921,258.67873 11.68924,1.76848 m 2.21323,0.33485 c 0,0 1.54551,0.27436 2.05202,-0.25651 0.37568,-0.39374 2.88467,-2.90148 5.13945,-5.15119"
         id="path4758-9-2"
         sodipodi:nodetypes="cccsc" />
      <path
         id="path4851-9"
         style="fill:#ffff00;stroke:#000000;stroke-width:0.235678;stroke-linecap:round;stroke-linejoin:round;stroke-opacity:1"
         d="m 174.61666,231.54499 c -0.52546,1.39699 -1.54642,2.26508 -2.59843,1.90509 -1.052,-0.36 -1.42239,-1.85103 -0.93914,-3.26318 0.48324,-1.41214 1.7278,-2.26508 2.7798,-1.90508 1.05201,0.36 1.1866,2.12309 0.75777,3.26317 z m 0,0 c -0.52546,1.39699 -1.54642,2.26508 -2.59843,1.90509 -1.052,-0.36 -1.42239,-1.85102 -0.93914,-3.26318 0.48324,-1.41214 1.7278,-2.26508 2.7798,-1.90508 1.05201,0.36 1.1866,2.12309 0.75777,3.26317 z"
         sodipodi:nodetypes="sssss" />
      <path
         id="path4851-3-3"
         style="fill:#ffff00;stroke:#000000;stroke-width:0.235678;stroke-linecap:round;stroke-linejoin:round;stroke-dasharray:none;stroke-opacity:1"
         d="m 173.49992,231.17036 c -0.24913,0.76411 -1.05686,1.6351 -1.71473,1.41799 -0.59759,-0.19722 -0.89112,-1.2886 -0.54524,-2.29935 0.34588,-1.01075 1.16786,-1.51383 1.77201,-1.41799 0.67653,0.10733 0.75822,1.47046 0.48796,2.29935 z"
         sodipodi:nodetypes="sssss" />
      <path
         style="fill:#000000;fill-opacity:1;stroke:#000000;stroke-width:0.235678;stroke-linecap:round;stroke-linejoin:miter;stroke-dasharray:none;stroke-opacity:1"
         d="m 129.14554,211.06886 -4.38928,27.73225 24.32241,8.3614 4.37114,-27.71412 z"
         id="path4896-7" />
      <path
         style="fill:none;fill-opacity:1;stroke:#000000;stroke-width:0.235678;stroke-linecap:round;stroke-linejoin:miter;stroke-dasharray:none;stroke-opacity:1"
         d="m 129.56271,211.28651 -4.37115,27.33323 23.88711,8.25257"
         id="path4898-1" />
      <path
         style="fill:#ffffff;fill-opacity:1;stroke:none;stroke-width:0.262097;stroke-linecap:round"
         d="m 146.27424,227.88229 c 0.0445,0.70599 -0.2802,1.26324 -0.77495,1.29441 -0.49474,0.0311 -0.97221,-0.47554 -1.01669,-1.18153 -0.0445,-0.70599 0.32053,-1.30358 0.81528,-1.33475 0.49475,-0.0311 0.93188,0.51589 0.97636,1.22187 z"
         id="path4998-7" />
      <path
         style="fill:#ffffff;fill-opacity:1;stroke:none;stroke-width:0.262097;stroke-linecap:round"
         d="m 135.27401,224.13694 c 0.0445,0.70599 -0.28019,1.26323 -0.77494,1.2944 -0.49475,0.0311 -0.97222,-0.47554 -1.0167,-1.18152 -0.0445,-0.70599 0.32054,-1.30358 0.81529,-1.33475 0.49475,-0.0311 0.93187,0.51588 0.97635,1.22187 z"
         id="path4968-9" />
      <path
         style="fill:#ffffff;fill-opacity:1;stroke:none;stroke-width:0.235678;stroke-linecap:round;stroke-linejoin:miter;stroke-dasharray:none;stroke-opacity:1"
         d="m 135.54808,230.98385 -0.0544,0.88874 6.67461,2.3216 0.0907,-0.92501 z"
         id="path5000-4" />
    </g>
    <g
       id="g3"
       transform="matrix(1.0943963,0,0,1.0943963,-1.9132793,-88.37633)">
      <path
         id="path233-4-1"
         style="display:inline;fill:#ffffff;stroke:#000000;stroke-width:1.57095;stroke-linecap:round;stroke-linejoin:round;stroke-dasharray:none;stroke-opacity:1"
         d="m 26.548778,205.30956 c -2.175638,-0.0398 -3.323139,2.51032 -3.323139,2.51032 0,0 -6.601186,30.39389 -7.326566,33.87575 -0.725392,3.48186 2.176254,4.27965 2.176254,4.27965 0,0 11.019132,2.35549 18.885495,4.01703 -0.0024,0.003 -0.0049,0.006 -0.0073,0.009 v 2.1e-4 c 0,0 -14.145078,4.75126 -15.541451,5.22276 -1.39637,0.47151 -1.396312,1.52336 -1.396312,1.52336 v 3.8084 c 0,0.54403 0.580241,0.85219 0.580241,0.85219 0,0 10.282516,2.19441 11.62448,2.43015 1.341972,0.23575 1.976552,-0.16317 1.976552,-0.16317 l 0.906789,-0.38094 2.04e-4,-10e-4 c 0.002,0.10475 0.0077,0.43513 0.0077,0.43513 0,0 -0.153893,0.56431 0.564201,0.6669 0.718103,0.10259 11.540871,2.46201 11.540871,2.46201 0,0 1.12852,0.15392 2.000497,-0.15384 0.871976,-0.30775 15.438975,-5.07806 15.438975,-5.07806 0,0 0.666897,-0.25637 0.666897,-0.87188 0,-0.61551 -0.102692,-3.89831 -0.102692,-3.89831 0,0 0.211421,-0.74823 -1.378654,-1.46633 l -0.04262,-0.008 c 1.973367,-0.0174 3.357884,-0.57229 5.271071,-1.06286 2.829017,-0.72538 6.020577,-5.29542 6.020577,-5.29542 0,0 5.295354,-24.0105 5.875665,-27.78252 0.580311,-3.77202 -2.393818,-4.56988 -2.393818,-4.56988 l -24.91236,-5.63397 c -0.199148,-0.0701 -0.331017,-0.0966 -0.331017,-0.0966 0,0 -23.865482,-5.15021 -26.331808,-5.58545 -0.154145,-0.0272 -0.303683,-0.0414 -0.448724,-0.044 z" />
      <path
         style="fill:#ff0000;stroke:#000000;stroke-width:0.392736;stroke-linecap:round;stroke-linejoin:round;stroke-dasharray:none;stroke-opacity:1"
         d="m 35.103808,263.29403 -0.906738,0.38083 c 0,0 -0.634717,0.39897 -1.976685,0.16321 -1.341972,-0.23575 -11.624374,-2.43005 -11.624374,-2.43005 0,0 -0.580312,-0.30829 -0.580312,-0.85233 v -3.8083 c 0,0 0,-1.05182 1.396378,-1.52332 1.396374,-0.4715 15.541475,-5.22281 15.541475,-5.22281 l 15.396399,-1.16062 3.255316,8.44013 z"
         id="path449-4"
         sodipodi:nodetypes="ccscscscccc" />
      <path
         style="fill:#ff0000;stroke:#000000;stroke-width:0.392736;stroke-linecap:round;stroke-linejoin:round;stroke-dasharray:none;stroke-opacity:1"
         d="m 52.089598,253.16185 -15.849479,5.23186 c 0,0 -1.179736,0.56422 -1.179736,1.64137 0,1.07715 0.05129,3.69308 0.05129,3.69308 0,0 -0.153878,0.56422 0.564221,0.66681 0.718098,0.10259 11.540882,2.46206 11.540882,2.46206 0,0 1.128442,0.15387 2.000418,-0.15388 0.871977,-0.30776 15.439136,-5.07799 15.439136,-5.07799 0,0 0.666804,-0.25646 0.666804,-0.87198 0,-0.61551 -0.102583,-3.89825 -0.102583,-3.89825 0,0 0.21139,-0.74815 -1.378685,-1.46625"
         id="path447-8"
         sodipodi:nodetypes="ccscscscscc" />
      <path
         style="fill:#ff0000;stroke:#000000;stroke-width:0.392736;stroke-linecap:round;stroke-linejoin:round;stroke-dasharray:none;stroke-opacity:1"
         d="m 52.912125,210.86648 25.660668,5.80312 c 0,0 2.974098,0.79793 2.393787,4.56996 -0.580311,3.77202 -5.875657,27.78243 -5.875657,27.78243 0,0 -3.191717,4.56995 -6.020734,5.29534 -2.829021,0.72539 -4.49742,1.59586 -8.63214,0.65286 -4.134724,-0.94301 -16.665832,-3.53628 -16.665832,-3.53628"
         id="path343-5"
         sodipodi:nodetypes="ccscssc" />
      <path
         style="fill:#ff0000;stroke:#000000;stroke-width:0.392736;stroke-linecap:round;stroke-linejoin:round;stroke-dasharray:none;stroke-opacity:1"
         d="m 23.225549,207.81985 c 0,0 1.305703,-2.90156 3.772028,-2.46633 2.466325,0.43523 26.33165,5.5855 26.33165,5.5855 0,0 3.119175,0.58031 2.466325,4.42488 -0.652849,3.84457 -7.18136,33.00524 -7.18136,33.00524 0,0 -0.797926,3.84456 -4.13472,3.19171 -3.336794,-0.65285 -26.404188,-5.5855 -26.404188,-5.5855 0,0 -2.90156,-0.79793 -2.176172,-4.2798 0.725392,-3.48187 7.326437,-33.8757 7.326437,-33.8757 z"
         id="path233-8" />
      <path
         style="fill:none;stroke:#000000;stroke-width:0.392736;stroke-linecap:round;stroke-linejoin:round;stroke-dasharray:none;stroke-opacity:1"
         d="m 60.296444,212.48665 c 0,0 3.026277,0.82069 2.308178,4.46248 -0.718099,3.64178 -7.078408,32.98127 -7.078408,32.98127 0,0 -0.718099,3.74437 -4.462475,3.02627"
         id="path441-0"
         sodipodi:nodetypes="cscc" />
      <path
         style="fill:#000000;stroke:#000000;stroke-width:0.235642;stroke-linecap:round;stroke-linejoin:miter;stroke-dasharray:none;stroke-opacity:1"
         d="m 25.212166,212.02502 26.672259,5.6422 -5.744794,27.03131 -26.723553,-5.53962 z"
         id="path443-7" />
      <path
         style="fill:none;stroke:#000000;stroke-width:0.235642;stroke-linecap:round;stroke-linejoin:round;stroke-dasharray:none;stroke-opacity:1"
         d="m 25.622509,212.1276 -5.84738,27.0826"
         id="path445-1" />
      <path
         style="fill:#ffffff;fill-opacity:1;stroke:none;stroke-width:0.392736;stroke-linecap:round;stroke-linejoin:round;stroke-dasharray:none"
         d="m 31.567531,230.7059 7.266722,1.48924 -0.1579,0.79573 -7.243275,-1.53834 z"
         id="path451-0"
         sodipodi:nodetypes="ccccc" />
      <path
         style="fill:#ffffff;fill-opacity:1;stroke:none;stroke-width:0.392736;stroke-linecap:round;stroke-linejoin:round;stroke-dasharray:none"
         d="m 42.883615,225.62817 c 0,0 0.739912,0.24112 0.544042,1.26943 -0.14508,0.76166 -0.689122,1.01554 -1.088083,0.90674 -0.501006,-0.13664 -0.725392,-0.76166 -0.616585,-1.23317 0.108808,-0.4715 0.398965,-1.08808 1.160626,-0.943 z"
         id="path453-0"
         sodipodi:nodetypes="csssc" />
      <path
         style="fill:#ffffff;fill-opacity:1;stroke:none;stroke-width:0.392736;stroke-linecap:round;stroke-linejoin:round;stroke-dasharray:none"
         d="m 30.733336,223.12557 c 0.507773,0.10881 0.775061,0.60885 0.580311,1.37824 -0.161576,0.63832 -0.652853,0.90674 -1.088088,0.79793 -0.33381,-0.0834 -0.725388,-0.61658 -0.61658,-1.19689 0.108811,-0.58031 0.616584,-1.05182 1.124357,-0.97928 z"
         id="path455-9"
         sodipodi:nodetypes="csssc" />
      <path
         style="fill:none;stroke:#000000;stroke-width:0.235642;stroke-linecap:round;stroke-linejoin:round;stroke-dasharray:none;stroke-opacity:1"
         d="m 68.000238,230.05304 c 0.359561,0.0283 1.409711,0.36186 1.015545,2.77462 -0.348228,2.13157 -1.595857,2.53887 -2.103629,2.44819 -0.507773,-0.0907 -1.432647,-0.67099 -1.051819,-2.77461 0.380833,-2.10363 1.423555,-2.5045 2.139903,-2.4482 z"
         id="path1188-0"
         sodipodi:nodetypes="sssss" />
      <path
         style="fill:none;stroke:#000000;stroke-width:0.235642;stroke-linecap:round;stroke-linejoin:round;stroke-dasharray:none;stroke-opacity:1"
         d="m 67.258092,230.87987 c 0.2206,0.0238 0.861035,0.25829 0.581548,1.83944 -0.246914,1.39687 -1.020164,1.64677 -1.330913,1.57982 -0.310756,-0.0669 -0.87037,-0.46192 -0.603852,-1.83995 0.266531,-1.37804 0.913713,-1.62666 1.353217,-1.57931 z"
         id="path1188-5-5"
         sodipodi:nodetypes="sssss" />
      <path
         style="fill:#ff0000;stroke:#000000;stroke-width:0.235642;stroke-linecap:round;stroke-linejoin:round;stroke-dasharray:none;stroke-opacity:1"
         d="m 35.629717,260.19299 8.774935,1.86051 m 2.686222,0.56955 c 0,0 1.45078,0.18135 2.176171,-0.0362 m 1.326656,-0.44407 c 3.181682,-1.08078 11.049243,-3.79048 13.495201,-4.63329"
         id="path1236-9"
         sodipodi:nodetypes="cccccc" />
      <path
         style="fill:#ff0000;stroke:#000000;stroke-width:0.235642;stroke-linecap:round;stroke-linejoin:round;stroke-dasharray:none;stroke-opacity:1"
         d="m 20.541609,257.11008 8.903179,1.88175 m 2.594247,0.54831 c 0,0 1.124357,0.14508 2.139902,-0.10881"
         id="path1238-0"
         sodipodi:nodetypes="cccc" />
    </g>
    <g
       id="g4"
       transform="matrix(1.0627096,0,0,1.0627096,11.178132,46.289385)">
      <path
         style="fill:#800080;fill-opacity:1;stroke:#000000;stroke-width:1.50214;stroke-linecap:round;stroke-linejoin:miter;stroke-dasharray:none;stroke-opacity:1"
         d="m 103.03425,39.142806 c -0.0666,-0.0011 -0.12062,-3.76e-4 -0.15933,6.01e-4 -0.0442,0.0011 -0.0685,0.0025 -0.0685,0.0025 0,0 -30.800966,4.659421 -31.659274,4.806558 -0.858307,0.147139 -1.103611,0.318862 -2.182629,1.250738 -1.079004,0.931873 -1.078993,2.231533 -1.078993,2.231533 V 76.02879 c 0,0 -5.250702,2.04527 -7.471042,3.011864 -0.693622,0.31213 -0.693584,0.728317 -0.693584,0.728317 l -0.728316,2.913084 c -0.190742,0.624256 0.451002,1.283339 0.451002,1.283339 0,0 13.66411,16.195886 14.219009,16.750756 0.554895,0.5549 1.595393,0.20823 1.595393,0.20823 0,0 11.618102,-4.612684 12.173,-4.855453 0.554895,-0.242764 0.589565,-0.971093 0.589565,-0.971093 0,0 0.416239,-1.803395 0.520281,-2.497013 0.104042,-0.693602 -0.242772,-1.075109 -0.242772,-1.075109 l -3.275981,-3.895431 c 0.01344,-0.936754 0.0064,-1.878304 -0.006,-2.683703 l 8.471635,-1.315748 c 0,0 0.04625,-0.0075 0.0491,-0.008 0.466182,4.569645 0.942631,9.282155 0.980796,9.841916 0.07357,1.079018 1.299837,1.275191 1.299837,1.275191 0,0 14.149783,0.760072 14.934523,0.784594 0.78474,0.02452 1.17699,-1.25054 1.17699,-1.25054 0,0 0.19634,-0.956481 0.41705,-1.912883 0.22071,-0.956402 0.12265,-1.250739 0.12265,-1.250739 0,0 -0.24481,-2.324428 -0.36737,-3.482271 0.002,3.3e-4 2.05974,0.392325 3.01575,0.343299 0.71023,-0.03643 3.26154,0.07362 5.0272,-0.956342 1.55846,-0.909107 1.96198,-2.623929 1.96198,-2.623929 v -26.36228 c 0,-1.593997 -1.07899,-2.305276 -1.07899,-2.305276 -5.24597,-5.185861 -10.35538,-10.668716 -15.59423,-15.773655 -0.0336,-0.03081 -0.067,-0.06488 -0.10072,-0.09276 -0.74894,-0.618689 -1.83171,-0.70699 -2.2981,-0.714347 z"
         id="path2328-3"
         sodipodi:nodetypes="cccssccccccscscscccccscscsccsscsccscc" />
      <path
         style="fill:#800080;fill-opacity:1;stroke:#000000;stroke-width:0.375535;stroke-linecap:round;stroke-linejoin:miter;stroke-dasharray:none;stroke-opacity:1"
         d="m 85.027154,84.979701 v 2.648497 l -3.647953,1.192444 -2.288944,-5.444912 1.525963,-1.560642 4.213737,2.011494 z"
         id="path2334" />
      <path
         style="fill:#800080;fill-opacity:1;stroke:#000000;stroke-width:0.375535;stroke-linecap:round;stroke-linejoin:miter;stroke-dasharray:none;stroke-opacity:1"
         d="M 93.487637,83.630925 83.065302,85.249456 78.466,81.884449 c 0,0 -8.462156,-13.21345 -8.375453,-13.109404 0.0867,0.104042 34.455543,0.190741 34.455543,0.190741 l -9.797375,14.357925 z"
         id="path2332"
         sodipodi:nodetypes="cccsccc" />
      <path
         style="fill:#800080;fill-opacity:1;stroke:#000000;stroke-width:0.225322;stroke-linecap:round;stroke-linejoin:miter;stroke-dasharray:none;stroke-opacity:1"
         d="M 79.362307,80.810763 92.948128,78.799866"
         id="path2336" />
      <path
         style="fill:#800080;fill-opacity:1;stroke:#000000;stroke-width:0.375535;stroke-linecap:round;stroke-linejoin:miter;stroke-dasharray:none;stroke-opacity:1"
         d="m 105.43041,39.930681 15.59672,15.792904 c 0,0 1.07902,0.711174 1.07902,2.305179 v 26.362379 c 0,0 -0.40338,1.714871 -1.96185,2.623978 -1.76567,1.029973 -4.31701,0.919979 -5.02724,0.956402 -0.95641,0.04904 -3.01635,-0.343325 -3.01635,-0.343325"
         id="path2342"
         sodipodi:nodetypes="ccscssc" />
      <path
         style="fill:#800080;fill-opacity:1;stroke:#000000;stroke-width:0.375535;stroke-linecap:round;stroke-linejoin:miter;stroke-dasharray:none;stroke-opacity:1"
         d="M 67.885475,76.028749 V 47.434763 c 0,0 0,-1.299727 1.079018,-2.231606 1.079019,-0.93188 1.324251,-1.103542 2.18256,-1.250681 0.85831,-0.147138 31.659377,-4.806537 31.659377,-4.806537 0,0 1.54767,-0.09692 2.52589,0.711172 0.56403,0.46594 1.12806,1.348773 1.10354,2.427792 -0.0245,1.079018 -0.0491,29.059926 -0.0491,29.059926"
         id="path2340"
         sodipodi:nodetypes="ccsscssc" />
      <path
         style="fill:#800080;fill-opacity:1;stroke:#000000;stroke-width:0.375535;stroke-linecap:round;stroke-linejoin:miter;stroke-dasharray:none;stroke-opacity:1"
         d="m 93.193361,72.006954 c 0,0 0.09809,-1.299724 1.544959,-1.226157 1.446866,0.07357 14.34604,0.735697 14.34604,0.735697 0,0 1.3733,-0.22071 1.54496,1.839233 0.17166,2.059946 1.83924,17.754757 1.83924,17.754757 0,0 0.0981,0.294281 -0.12262,1.250683 -0.22071,0.956402 -0.41689,1.912804 -0.41689,1.912804 0,0 -0.39237,1.275205 -1.17712,1.250683 -0.78474,-0.02452 -14.934592,-0.784741 -14.934592,-0.784741 0,0 -1.226156,-0.196188 -1.299727,-1.275206 -0.07357,-1.079018 -1.839237,-18.220695 -1.839237,-18.220695 0,0 0.02452,-0.61308 0.09809,-1.029973 0.07357,-0.416893 0.416894,-2.207085 0.416894,-2.207085 z"
         id="path2330" />
      <path
         style="fill:#800080;fill-opacity:1;stroke:#000000;stroke-width:0.375535;stroke-linecap:round;stroke-linejoin:miter;stroke-dasharray:none;stroke-opacity:1"
         d="m 109.84458,44.418416 c 0,0 0.90735,0.760218 0.88283,2.158037 -0.0245,1.39782 -0.0491,27.220693 -0.0491,27.220693"
         id="path2344" />
      <path
         style="fill:#ffffff;fill-opacity:1;stroke:#000000;stroke-width:0.225321;stroke-linecap:round;stroke-linejoin:miter;stroke-dasharray:none;stroke-opacity:1"
         d="M 71.373742,74.670806 V 50.255408 l 31.316918,-4.785973 0.052,25.334447 -2.19086,0.330133 m -7.459342,1.124029 -18.630818,2.807424"
         id="path2346"
         sodipodi:nodetypes="ccccccc" />
      <path
         style="fill:#ffffff;fill-opacity:1;stroke:#000000;stroke-width:0.225322;stroke-linecap:round;stroke-linejoin:miter;stroke-dasharray:none;stroke-opacity:1"
         d="m 102.63863,45.64284 -31.108824,4.733952 -0.01734,24.224653"
         id="path2348" />
      <path
         style="fill:#800080;fill-opacity:1;stroke:#000000;stroke-width:0.225322;stroke-linecap:round;stroke-linejoin:miter;stroke-dasharray:none;stroke-opacity:1"
         d="m 111.11978,77.96608 6.70758,6.804508 m 1.15652,1.173236 0.62091,0.629882"
         id="path2350"
         sodipodi:nodetypes="cccc" />
      <path
         style="fill:#800080;fill-opacity:1;stroke:#000000;stroke-width:0.375535;stroke-linecap:round;stroke-linejoin:miter;stroke-dasharray:none;stroke-opacity:1"
         d="m 58.992637,82.682112 0.728301,-2.913204 c 0,0 0,-0.416168 0.693619,-0.728298 0.693619,-0.31213 11.722167,-4.612569 11.722167,-4.612569 0,0 0.548107,-0.196825 1.036221,-0.148884 0.706242,0.06937 1.18336,0.669098 1.18336,0.669098 l 13.941748,16.577503 c 0,0 0.34681,0.381488 0.242767,1.075109 -0.104043,0.693618 -0.520215,2.497028 -0.520215,2.497028 0,0 -0.03468,0.728302 -0.589575,0.971067 -0.554896,0.242769 -12.173019,4.855338 -12.173019,4.855338 0,0 -1.04043,0.34681 -1.595325,-0.20809 C 73.10779,100.16132 59.44349,83.965305 59.44349,83.965305 c 0,0 -0.641598,-0.658937 -0.450853,-1.283193 z"
         id="path2328"
         sodipodi:nodetypes="ccscsccscscscc" />
      <path
         style="fill:#800080;fill-opacity:1;stroke:#000000;stroke-width:0.225322;stroke-linecap:round;stroke-linejoin:miter;stroke-dasharray:none;stroke-opacity:1"
         d="m 59.694744,82.061446 9.294517,-3.702384 M 71.514901,77.353 c 0,0 0.662125,-0.147139 1.103542,-0.07357 0.441416,0.07357 1.029971,0.637603 1.029971,0.637603 m 0.541455,0.63972 2.945455,3.480022 m 1.539713,1.819153 8.485631,10.02567"
         id="path2352"
         sodipodi:nodetypes="cccsccccc" />
      <path
         style="fill:#800080;fill-opacity:1;stroke:#000000;stroke-width:0.225322;stroke-linecap:round;stroke-linejoin:miter;stroke-dasharray:none;stroke-opacity:1"
         d="M 94.076195,73.797146 104.98781,74.3596 m 3.36086,0.173238 c 0,0 1.56948,-0.07357 1.69209,1.201634 m 0.17447,1.735886 c 0.17976,1.772147 0.46782,4.593781 0.74819,7.336116 m 0.3156,3.085222 c 0.28342,2.769453 0.50289,4.910886 0.50289,4.910886"
         id="path2388"
         sodipodi:nodetypes="cccccccc" />
      <path
         style="fill:#800080;fill-opacity:1;stroke:#000000;stroke-width:0.225322;stroke-linecap:round;stroke-linejoin:miter;stroke-dasharray:none;stroke-opacity:1"
         d="m 115.08027,61.829849 c 0.45368,-0.09809 1.09108,0.686855 1.32425,2.391007 0.27937,2.041869 -0.0981,2.820162 -0.46594,2.869207 -0.36785,0.04905 -1.06676,-0.747954 -1.2752,-2.501358 -0.1124,-0.945414 -0.13488,-2.673023 0.41689,-2.758856 z"
         id="path2425"
         sodipodi:nodetypes="csssc" />
      <path
         style="fill:#800080;fill-opacity:1;stroke:#000000;stroke-width:0.225322;stroke-linecap:round;stroke-linejoin:miter;stroke-dasharray:none;stroke-opacity:1"
         d="m 114.72469,62.872084 c 0.15939,-0.03677 0.5395,0.465938 0.71117,1.520433 0.17166,1.054496 0.049,1.92507 -0.17167,1.961853"
         id="path2427"
         sodipodi:nodetypes="csc" />
      <path
         style="fill:#000000;fill-opacity:1;stroke:none;stroke-width:0.225322;stroke-linecap:round;stroke-linejoin:miter;stroke-dasharray:none;stroke-opacity:1"
         d="m 82.631473,63.619597 8.600879,-1.248516 0.0347,0.693621 -8.618221,1.248512 z"
         id="path2466"
         sodipodi:nodetypes="ccccc" />
      <path
         style="fill:#000000;fill-opacity:1;stroke:none;stroke-width:0.225322;stroke-linecap:round;stroke-linejoin:miter;stroke-dasharray:none;stroke-opacity:1"
         d="m 94.566918,55.253894 c 0.476126,0.270134 0.780321,0.849683 0.346811,1.543304 -0.433514,0.693617 -1.248516,0.624256 -1.68203,0.242765 -0.285497,-0.251241 -0.355775,-0.94926 0.03466,-1.42192 0.418875,-0.534458 1.088996,-0.48417 1.300538,-0.364149 z"
         id="path2497" />
      <path
         style="fill:#000000;fill-opacity:1;stroke:none;stroke-width:0.225322;stroke-linecap:round;stroke-linejoin:miter;stroke-dasharray:none;stroke-opacity:1"
         d="m 80.307848,57.429044 c 0.476127,0.270133 0.780322,0.849682 0.346809,1.543303 -0.433512,0.693618 -1.248515,0.624256 -1.682027,0.242765 -0.285499,-0.251241 -0.355775,-0.949259 0.03468,-1.421919 0.418875,-0.534458 1.088993,-0.48417 1.300538,-0.364149 z"
         id="path2468" />
    </g>
  </g>
</svg>
